<svg width="78" height="28" fill="none" xmlns="http://www.w3.org/2000/svg"><path d="m26.134 15.604-1.354-4.729.001.007-.002-.008-2.69-9.385c-.146-.495-.551-.826-1.015-.822-.466.003-.86.328-1.004.83l-2.553 8.907H9.462L6.904 1.496C6.76.995 6.366.67 5.9.666h-.006c-.458 0-.864.33-1.012.83L2.2 10.874v.001l-.002.007.002-.006-1.36 4.73c-.205.713.017 1.49.552 1.93l11.742 9.669.005.004.015.012-.014-.012.003.002.002.001a.602.602 0 0 0 .057.04l.008.005.004.004.004.001.003.002.007.003.031.015.03.014.006.003.006.002h.002l.009.003h.003c.014.006.029.01.043.013l.017.005h.002l.006.002.01.002h.008a.528.528 0 0 0 .17 0h.01l.009-.002.005-.002h.003l.017-.005c.014-.004.029-.007.043-.012h.003l.008-.003h.003l.006-.003.005-.003h.001l.031-.015.03-.014.007-.003.002-.002.004-.001.005-.004.008-.005a.596.596 0 0 0 .057-.04l.004-.002.002-.001.005-.004 11.743-9.669c.535-.44.757-1.217.552-1.93ZM21.081 2.368l2.303 8.036h-4.606l2.303-8.036Zm1.9 9.395-.94 1.364-6.931 10.066 3.278-11.43h4.593ZM12.916 26.864l.002.006-.002-.006Zm-1.051-3.67L3.998 11.762h4.593l3.274 11.43ZM5.894 2.367 8.2 10.404H3.595l2.299-8.036ZM2.097 16.436a.396.396 0 0 1-.117-.412l1.01-3.515 7.408 10.762-8.3-6.835Zm11.016 10.75-.006-.007-.002-.001a.815.815 0 0 1-.038-.04c0 .002.001.002.002.003l.003.002a.62.62 0 0 0 .054.053l.003.003-.016-.013Zm.374-2.73-1.927-6.727-1.709-5.966h7.277l-3.641 12.692Zm.394 2.709-.013.013-.002.002-.007.006-.015.013.002-.003a.617.617 0 0 0 .055-.052l.002-.002.003-.003a.743.743 0 0 1-.025.026Zm10.996-10.73-8.299 6.834 7.41-10.76 1.006 3.515a.397.397 0 0 1-.117.412ZM54.527 7.146h-1.636l.007 13.826h6.629v-1.71h-4.992l-.008-12.116ZM65.835 18.544c-.413.485-1.096.97-2.027.97-1.246 0-1.75-.697-1.75-1.608 0-1.37.841-2.025 2.628-2.025.338 0 .878.043 1.156.102v2.561h-.007Zm-1.697-8.38c-1.321 0-2.537.527-3.483 1.42l.578 1.14c.668-.442 1.486-.884 2.665-.884 1.344 0 1.937.783 1.937 2.093v.672c-.263-.06-.804-.102-1.134-.102-2.868 0-4.324 1.14-4.324 3.522 0 2.136 1.156 3.208 2.905 3.208 1.179 0 2.313-.613 2.703-1.608l.3 1.353h1.156v-7.08c-.007-2.237-.863-3.734-3.303-3.734ZM72.722 19.579c-.615 0-1.156-.085-1.561-.298v-6.39c.555-.527 1.246-.91 2.124-.91 1.584 0 2.192 1.268 2.192 3.318 0 2.91-.983 4.28-2.755 4.28Zm.69-9.41c-1.463 0-2.251 1.131-2.251 1.131V9.513l-.008-2.365h-1.599l.008 13.486c.803.383 1.899.587 3.093.587 3.055 0 4.526-2.212 4.526-6.033-.007-3.02-1.366-5.02-3.768-5.02ZM36.708 8.645c1.449 0 2.387.544 2.995 1.097l.706-1.387c-.953-.953-2.245-1.463-3.626-1.463-3.483 0-5.923 2.408-5.923 7.266 0 5.088 2.635 7.07 5.645 7.07 1.51 0 2.793-.4 3.634-.8l-.038-5.436V13.28h-4.466v1.71h2.852l.038 4.127c-.376.213-1.021.383-1.9.383-2.417 0-4.038-1.727-4.038-5.36-.008-3.701 1.666-5.496 4.121-5.496ZM48.233 7.143h-1.6l.008 2.323v8.023c0 2.237.856 3.735 3.296 3.735.338 0 .668-.034.983-.102v-1.625c-.232.042-.48.06-.743.06-1.344 0-1.937-.784-1.937-2.094v-5.53h2.68v-1.514h-2.68l-.007-3.276ZM42.568 20.97h1.599V10.42h-1.6v10.55ZM42.568 8.966h1.599V7.153h-1.6v1.813Z" fill="#999795"/></svg>